<svg width="393" height="639" viewBox="0 0 393 639" fill="none" xmlns="http://www.w3.org/2000/svg">
<circle cx="200" cy="332" r="211.5" stroke="white" stroke-opacity="0.2" stroke-width="3"/>
<circle cx="200" cy="332" r="330.5" stroke="white" stroke-opacity="0.2" stroke-width="3"/>
<rect x="140" y="182" width="111" height="201" fill="url(#paint0_linear_35_2)"/>
<path d="M161.5 160L139 182.5H251L228.5 160H161.5Z" fill="url(#paint1_linear_35_2)"/>
<rect x="29" y="235" width="111" height="148" fill="url(#paint2_linear_35_2)"/>
<path d="M50.5 213L28 235.5H140V213H95.25H50.5Z" fill="url(#paint3_linear_35_2)"/>
<rect width="111" height="122" transform="matrix(-1 0 0 1 362 261)" fill="url(#paint4_linear_35_2)"/>
<path d="M340.5 239L363 261.5H251V239H340.5Z" fill="url(#paint5_linear_35_2)"/>
<path d="M212.975 291V300H179.375V291H190.7V257.55H179.6V250.425L192.8 246.75H201.65V291H212.975Z" fill="white"/>
<path d="M103.5 330H66.825V321L87.675 300.75C90.325 298.25 91.65 295.425 91.65 292.275C91.65 290.325 90.975 288.75 89.625 287.55C88.275 286.3 86.55 285.675 84.45 285.675C82.1 285.675 80.3 286.375 79.05 287.775C77.85 289.125 77.25 290.875 77.25 293.025L77.475 295.95H66.675C66.525 295.1 66.45 294.075 66.45 292.875C66.45 287.725 68.1 283.575 71.4 280.425C74.75 277.225 79.1 275.625 84.45 275.625C89.95 275.625 94.35 277.15 97.65 280.2C100.95 283.25 102.6 287.2 102.6 292.05C102.6 295.55 101.95 298.575 100.65 301.125C99.35 303.675 97.075 306.4 93.825 309.3L81.75 319.95H103.5V330Z" fill="white"/>
<path d="M300.8 320.275V311.2H305.75C308.3 311.2 310.225 310.65 311.525 309.55C312.825 308.4 313.475 306.875 313.475 304.975C313.475 303.075 312.85 301.525 311.6 300.325C310.4 299.075 308.625 298.45 306.275 298.45C303.775 298.45 301.9 299.2 300.65 300.7C299.4 302.15 298.775 303.9 298.775 305.95H288.125C288.125 301.05 289.8 296.95 293.15 293.65C296.55 290.3 300.925 288.625 306.275 288.625C311.725 288.625 316.05 290.075 319.25 292.975C322.45 295.825 324.05 299.6 324.05 304.3C324.05 309.65 321.65 313.375 316.85 315.475C322.05 317.475 324.65 321.425 324.65 327.325C324.65 332.075 322.875 336.075 319.325 339.325C315.825 342.525 311.325 344.125 305.825 344.125C300.375 344.125 295.925 342.55 292.475 339.4C289.025 336.25 287.2 332.05 287 326.8H297.65C297.75 329.05 298.5 330.875 299.9 332.275C301.3 333.625 303.275 334.3 305.825 334.3C308.225 334.3 310.15 333.65 311.6 332.35C313.05 331.05 313.775 329.375 313.775 327.325C313.775 325.175 313.1 323.475 311.75 322.225C310.45 320.925 308.4 320.275 305.6 320.275H300.8Z" fill="white"/>
<defs>
<linearGradient id="paint0_linear_35_2" x1="157" y1="412.5" x2="156.5" y2="182" gradientUnits="userSpaceOnUse">
<stop stop-color="#D9D9D9"/>
<stop offset="1" stop-color="#0FB7FF"/>
</linearGradient>
<linearGradient id="paint1_linear_35_2" x1="195" y1="189" x2="195" y2="160" gradientUnits="userSpaceOnUse">
<stop stop-color="#D9D9D9"/>
<stop offset="1" stop-color="#D9D9D9" stop-opacity="0"/>
</linearGradient>
<linearGradient id="paint2_linear_35_2" x1="46" y1="404.721" x2="45.7289" y2="235" gradientUnits="userSpaceOnUse">
<stop stop-color="#D9D9D9"/>
<stop offset="1" stop-color="#009BDD"/>
</linearGradient>
<linearGradient id="paint3_linear_35_2" x1="84" y1="242" x2="84" y2="213" gradientUnits="userSpaceOnUse">
<stop stop-color="#D9D9D9"/>
<stop offset="1" stop-color="#D9D9D9" stop-opacity="0"/>
</linearGradient>
<linearGradient id="paint4_linear_35_2" x1="17" y1="139.905" x2="16.8158" y2="-0.00040848" gradientUnits="userSpaceOnUse">
<stop stop-color="#D9D9D9"/>
<stop offset="1" stop-color="#009BDD"/>
</linearGradient>
<linearGradient id="paint5_linear_35_2" x1="307" y1="268" x2="307" y2="239" gradientUnits="userSpaceOnUse">
<stop stop-color="#D9D9D9"/>
<stop offset="1" stop-color="#D9D9D9" stop-opacity="0"/>
</linearGradient>
</defs>
</svg>
